<?xml version="1.0" standalone="no"?>
<!DOCTYPE svg PUBLIC "-//W3C//DTD SVG 20010904//EN"
 "http://www.w3.org/TR/2001/REC-SVG-20010904/DTD/svg10.dtd">
<svg version="1.0" xmlns="http://www.w3.org/2000/svg"
 width="512.000000pt" height="512.000000pt" viewBox="0 0 512.000000 512.000000"
 preserveAspectRatio="xMidYMid meet">

<g transform="translate(0.000000,512.000000) scale(0.100000,-0.100000)"
fill="#000000" stroke="none">
<path d="M2474 4519 c-148 -14 -275 -70 -396 -174 -40 -34 -334 -325 -653
-646 -417 -420 -589 -600 -614 -641 -106 -182 -135 -381 -82 -572 l18 -66
-373 0 c-206 0 -374 -3 -374 -6 0 -3 61 -94 135 -202 74 -109 136 -200 138
-204 1 -4 -60 -97 -135 -207 -76 -110 -138 -202 -138 -205 0 -4 336 -6 747 -6
l747 0 316 -313 c341 -338 374 -364 525 -414 69 -23 97 -27 210 -27 110 -1
142 3 205 22 167 53 186 67 535 414 l321 318 748 0 c594 0 747 3 743 13 -3 6
-62 95 -132 197 -70 102 -129 190 -132 197 -3 7 55 99 127 204 73 106 134 198
137 206 4 11 -61 13 -370 13 l-374 0 20 68 c16 51 20 96 20 192 1 115 -2 133
-31 218 -58 169 -70 183 -721 835 -328 329 -623 619 -656 644 -146 111 -320
160 -511 142z m249 -168 c131 -46 142 -56 635 -545 259 -259 472 -474 472
-478 0 -4 -170 -8 -377 -8 l-378 0 -125 218 -125 217 -275 0 -274 0 -136 -236
-136 -236 135 -236 136 -237 275 0 275 0 124 215 123 215 428 0 427 0 104
-107 c58 -60 119 -130 136 -158 90 -143 108 -358 43 -511 l-19 -44 -315 0
-315 0 75 129 75 128 -104 179 -103 179 -211 3 -210 2 -92 -160 -93 -160 -348
0 -348 0 -92 160 -92 160 -210 -2 -211 -3 -103 -178 -103 -179 74 -129 74
-129 -317 2 -317 3 -23 65 c-51 142 -38 312 35 454 33 65 90 124 667 702 604
605 634 633 706 668 41 20 104 43 140 51 84 19 216 13 293 -14z m94 -876 c41
-71 83 -144 93 -160 l19 -31 -92 -159 -93 -160 -194 0 -194 0 -92 159 -91 159
84 146 c47 80 89 154 94 164 9 16 27 17 201 15 l190 -3 75 -130z m116 -900
c16 -27 43 -74 59 -102 l30 -53 -69 0 -68 0 -30 55 -29 55 -276 0 -275 0 -30
-55 -29 -55 -69 0 c-78 0 -79 -15 5 128 l49 82 351 -2 352 -3 29 -50z m-917
-219 c17 -13 19 -31 24 -186 l5 -172 102 96 c57 53 110 96 118 96 21 0 55 -36
55 -59 0 -11 -32 -49 -77 -90 l-77 -70 76 -83 c96 -106 104 -122 83 -154 -30
-46 -61 -33 -160 66 -84 84 -90 88 -107 73 -13 -12 -18 -31 -18 -73 0 -65 -16
-92 -53 -92 -57 0 -57 -2 -57 325 0 266 2 303 17 319 19 22 42 23 69 4z
m-1238 -38 c9 -9 12 -76 12 -242 0 -221 -1 -233 -23 -271 -12 -21 -42 -53 -65
-69 -37 -26 -54 -31 -115 -34 -60 -2 -78 1 -111 20 -22 13 -48 35 -59 50 -48
65 29 122 90 66 11 -11 39 -22 61 -25 34 -4 44 -1 73 25 l34 30 5 222 c5 238
6 240 61 240 14 0 30 -5 37 -12z m2250 0 c9 -9 12 -77 12 -244 l0 -232 -32
-48 c-44 -64 -102 -94 -180 -94 -67 0 -124 24 -157 66 -56 72 18 130 89 70 43
-36 90 -35 132 3 l33 29 3 219 c3 188 5 220 19 231 21 15 65 16 81 0z m-1822
-151 c29 -15 32 -15 47 4 19 21 67 25 85 7 9 -9 12 -74 12 -230 l0 -218 -24
-15 c-20 -14 -29 -14 -48 -4 -13 6 -27 18 -31 25 -6 11 -14 9 -38 -8 -45 -34
-150 -37 -204 -6 -144 84 -164 306 -37 420 23 21 52 40 64 42 68 15 123 10
174 -17z m593 3 c35 -18 53 -54 42 -83 -14 -36 -42 -41 -90 -16 -141 73 -270
-114 -157 -227 42 -42 92 -52 149 -30 71 27 107 17 107 -29 0 -53 -85 -89
-195 -83 -63 3 -80 8 -117 35 -137 99 -129 342 15 423 66 38 186 43 246 10z
m1704 -9 c169 -104 151 -372 -30 -448 -47 -19 -150 -16 -198 6 -92 42 -139
119 -139 226 0 61 4 78 30 125 36 64 102 110 167 120 57 8 131 -5 170 -29z
m1035 3 c22 -15 25 -14 39 5 17 25 59 27 85 4 16 -15 18 -35 18 -224 l0 -208
-25 -19 c-29 -23 -59 -19 -79 10 -13 19 -15 18 -51 -6 -31 -21 -50 -26 -100
-26 -54 0 -69 4 -111 33 -70 47 -104 116 -104 211 0 165 113 271 259 244 25
-4 55 -15 69 -24z m-750 10 c12 -8 22 -22 22 -30 0 -19 14 -18 31 2 23 28 67
44 124 44 74 0 108 -19 134 -74 19 -41 21 -63 21 -215 0 -183 -3 -193 -57
-193 -46 0 -53 22 -53 174 0 187 -19 222 -114 204 -63 -12 -70 -30 -76 -198
-5 -142 -6 -151 -29 -169 -30 -25 -37 -24 -66 6 -25 24 -25 26 -25 214 0 104
4 201 9 215 8 21 18 28 51 35 3 0 16 -6 28 -15z m-654 -844 c-278 -276 -309
-300 -441 -334 -78 -20 -208 -20 -287 0 -127 33 -163 60 -440 334 l-258 257
842 0 842 0 -258 -257z"/>
<path d="M1074 2081 c-32 -14 -71 -66 -78 -105 -10 -50 8 -107 44 -141 26 -25
40 -30 80 -30 40 0 54 5 79 29 56 54 57 164 2 219 -30 31 -90 44 -127 28z"/>
<path d="M3312 2070 c-89 -56 -81 -210 14 -255 101 -48 210 60 176 174 -26 85
-120 125 -190 81z"/>
<path d="M4390 2077 c-93 -47 -94 -214 -1 -262 38 -19 64 -19 107 1 37 18 74
82 74 130 -1 100 -99 172 -180 131z"/>
</g>
</svg>
