<?xml version="1.0" standalone="no"?>
<!DOCTYPE svg PUBLIC "-//W3C//DTD SVG 20010904//EN"
 "http://www.w3.org/TR/2001/REC-SVG-20010904/DTD/svg10.dtd">
<svg version="1.0" xmlns="http://www.w3.org/2000/svg"
 width="512.000000pt" height="512.000000pt" viewBox="0 0 512.000000 512.000000"
 preserveAspectRatio="xMidYMid meet">
<metadata>
Created by potrace 1.14, written by Peter Selinger 2001-2017
</metadata>
<g transform="translate(0.000000,512.000000) scale(0.100000,-0.100000)"
fill="#000000" stroke="none">
<path d="M2411 4285 c-77 -17 -175 -62 -245 -112 -61 -44 -720 -696 -1025
-1014 -224 -234 -247 -265 -292 -397 -40 -115 -43 -273 -9 -393 6 -19 10 -39
10 -46 0 -10 -79 -13 -351 -15 l-350 -3 125 -185 c70 -102 126 -192 126 -201
0 -8 -56 -98 -125 -200 l-125 -184 709 -5 709 -5 289 -285 c290 -288 367 -351
467 -389 182 -68 427 -46 580 52 28 17 187 166 355 329 l306 298 696 0 c383 0
699 3 702 6 4 4 -50 90 -120 192 l-126 185 18 31 c10 17 67 104 126 192 59 89
105 165 102 168 -4 3 -161 6 -350 6 -188 0 -343 4 -343 8 0 5 7 31 15 58 10
33 15 93 15 180 0 135 -16 208 -65 305 -42 81 -140 186 -689 735 l-581 582
-95 46 c-52 26 -126 53 -165 61 -86 18 -209 18 -294 0z m330 -154 c31 -12 78
-36 105 -53 27 -18 246 -228 487 -467 l438 -436 -103 -8 c-57 -4 -217 -6 -357
-5 l-253 3 -117 202 -116 203 -264 -3 -264 -2 -123 -213 c-68 -118 -124 -219
-124 -225 0 -7 56 -109 124 -227 l124 -215 263 0 263 0 116 202 115 203 405 0
405 0 93 -100 c51 -55 109 -123 127 -151 87 -128 107 -346 45 -486 l-19 -43
-295 0 c-163 0 -296 2 -296 4 0 2 31 57 70 122 l69 119 -17 30 c-10 16 -53 91
-96 166 l-79 136 -66 7 c-36 3 -127 6 -201 6 l-135 0 -85 -150 -85 -150 -334
3 -334 2 -84 148 -85 147 -136 0 c-75 0 -166 -3 -202 -6 l-65 -7 -92 -162
c-51 -89 -93 -165 -93 -170 0 -4 29 -59 65 -121 36 -62 65 -116 65 -119 0 -7
-232 -6 -432 2 l-166 6 -22 75 c-19 63 -22 91 -18 181 6 117 26 183 80 267 35
53 957 987 1128 1142 104 95 178 139 268 162 65 16 240 5 303 -19z m-96 -701
l100 -1 87 -151 87 -151 -86 -148 -87 -149 -186 0 -185 0 -82 145 c-46 80 -83
149 -83 154 0 5 37 74 83 153 93 159 95 161 202 152 28 -2 95 -4 150 -4z m302
-1015 c29 -49 53 -93 53 -97 0 -4 -27 -8 -59 -8 l-60 0 -31 55 -31 55 -259 0
-258 0 -28 -55 -29 -55 -57 0 c-73 0 -74 6 -7 116 l51 84 331 -2 331 -3 53
-90z m-887 -171 c9 -10 15 -64 18 -170 3 -84 7 -154 10 -154 2 0 38 31 78 69
40 38 84 77 98 86 32 21 64 12 72 -22 6 -21 -4 -35 -64 -96 l-70 -72 55 -60
c30 -33 66 -77 80 -97 24 -36 25 -39 9 -63 -9 -14 -25 -25 -36 -25 -11 0 -58
36 -104 80 -47 44 -89 80 -94 80 -19 0 -32 -27 -32 -70 0 -25 -7 -56 -16 -68
-17 -24 -53 -29 -72 -10 -17 17 -17 579 0 596 17 17 53 15 68 -4z m-1170 -31
c3 -2 5 -105 5 -227 l0 -222 -27 -41 c-42 -64 -88 -87 -174 -87 -66 -1 -75 2
-111 30 -21 17 -42 43 -47 57 -19 53 41 76 99 37 42 -28 87 -26 124 6 l31 26
1 121 c1 187 12 296 29 308 14 8 58 4 70 -8z m2111 7 c18 -10 19 -24 19 -239
l0 -227 -37 -44 c-80 -93 -211 -107 -292 -31 -70 66 -11 137 67 83 42 -29 61
-33 95 -18 64 27 65 31 69 254 3 188 4 205 22 218 24 17 31 17 57 4z m-1715
-145 c25 -10 34 -10 50 2 10 8 33 13 49 11 29 -3 30 -5 36 -63 4 -33 7 -128 8
-212 1 -141 0 -153 -18 -163 -28 -15 -52 -12 -73 7 -17 15 -21 16 -46 1 -183
-106 -374 113 -278 318 51 109 156 147 272 99z m566 -1 c31 -16 43 -44 33 -81
-5 -22 -10 -24 -38 -20 -18 3 -50 11 -72 18 -80 24 -155 -40 -155 -133 0 -79
68 -137 147 -124 129 20 121 21 129 -8 14 -55 -48 -90 -163 -91 -75 0 -85 2
-124 30 -63 44 -94 111 -93 200 1 125 61 201 177 225 50 10 122 3 159 -16z
m1585 5 c37 -12 99 -77 119 -125 8 -18 14 -60 14 -93 0 -117 -80 -215 -186
-227 -107 -13 -207 36 -245 120 -26 57 -25 164 0 215 24 47 92 109 128 117 16
3 33 7 38 9 14 6 94 -4 132 -16z m996 -6 c26 -13 31 -13 46 1 21 19 62 21 79
4 9 -9 12 -70 12 -215 0 -190 -1 -203 -19 -213 -28 -15 -52 -12 -73 7 -17 15
-21 15 -57 -5 -121 -68 -272 27 -288 181 -12 117 52 230 144 255 45 12 117 5
156 -15z m-702 7 c10 -6 19 -17 19 -25 0 -20 3 -19 46 10 30 20 49 25 101 25
79 0 97 -9 125 -63 19 -38 22 -58 22 -198 1 -167 -5 -189 -49 -189 -41 0 -49
23 -55 175 -5 124 -9 147 -25 166 -16 17 -28 20 -64 16 -23 -3 -50 -12 -59
-20 -19 -20 -31 -90 -31 -194 -1 -92 -11 -127 -41 -143 -17 -9 -24 -6 -46 15
l-26 26 4 195 c2 160 6 196 18 204 20 13 37 12 61 0z m-611 -791 c-129 -126
-254 -243 -279 -259 -140 -94 -352 -105 -511 -28 -55 27 -102 68 -310 275
l-245 242 790 0 790 0 -235 -230z"/>
<path d="M1164 1990 c-33 -13 -66 -67 -71 -114 -16 -135 152 -203 212 -86 20
39 19 115 -2 151 -28 47 -90 69 -139 49z"/>
<path d="M3292 1985 c-43 -19 -77 -91 -67 -143 10 -51 21 -70 58 -92 65 -40
132 -17 167 55 35 71 10 144 -60 180 -36 18 -56 18 -98 0z"/>
<path d="M4298 1984 c-74 -40 -84 -168 -18 -226 77 -69 190 -2 190 113 0 44
-36 99 -76 115 -42 17 -62 17 -96 -2z"/>
</g>
</svg>
