<?xml version="1.0" standalone="no"?>
<!DOCTYPE svg PUBLIC "-//W3C//DTD SVG 20010904//EN"
 "http://www.w3.org/TR/2001/REC-SVG-20010904/DTD/svg10.dtd">
<svg version="1.0" xmlns="http://www.w3.org/2000/svg"
 width="512.000000pt" height="512.000000pt" viewBox="0 0 512.000000 512.000000"
 preserveAspectRatio="xMidYMid meet">
<metadata>
Created by Jack Jona | All Rights Reserved
</metadata>
<g transform="translate(0.000000,512.000000) scale(0.100000,-0.100000)"
fill="#000000" stroke="none">
<path d="M2480 4522 c-109 -10 -244 -60 -337 -123 -51 -35 -1218 -1198 -1291
-1285 -50 -62 -105 -174 -128 -264 -28 -106 -23 -276 9 -382 11 -34 12 -48 3
-50 -6 -2 -174 -4 -373 -3 -200 0 -363 -1 -363 -3 0 -3 139 -207 243 -357 l34
-50 -62 -90 c-174 -253 -215 -314 -215 -318 0 -3 336 -6 747 -6 l746 0 321
-318 c368 -364 382 -375 599 -432 54 -14 262 -6 325 12 66 19 164 66 222 105
24 17 181 167 347 333 l302 301 746 0 c567 0 745 2 742 11 -3 7 -62 95 -132
197 -70 102 -129 190 -132 197 -3 7 28 61 69 120 41 59 100 146 132 191 31 46
59 89 62 96 4 10 -76 12 -358 11 -200 0 -368 1 -375 3 -9 3 -9 11 -2 30 23 59
37 171 34 262 -6 138 -42 252 -117 363 -25 39 -275 296 -657 678 -469 470
-633 628 -688 663 -39 25 -78 46 -85 46 -8 0 -18 4 -24 10 -30 30 -241 62
-344 52z m180 -155 c8 -2 31 -7 50 -11 19 -5 67 -24 105 -44 63 -32 118 -84
543 -506 259 -259 472 -473 472 -476 0 -4 -170 -6 -377 -6 l-378 0 -107 185
c-60 101 -108 187 -108 190 0 3 -9 17 -20 31 l-19 25 -270 1 -271 1 -17 -26
c-10 -14 -29 -46 -43 -71 -33 -60 -108 -191 -120 -210 -5 -8 -29 -49 -53 -91
l-44 -76 68 -119 c38 -65 73 -126 78 -134 6 -8 36 -61 68 -117 l58 -103 275 0
275 0 50 87 c60 105 55 96 133 233 34 60 68 110 75 111 7 0 198 1 425 1 l414
1 90 -89 c113 -113 173 -195 207 -287 23 -63 26 -87 26 -192 -1 -98 -5 -131
-23 -180 -12 -33 -28 -64 -36 -70 -10 -8 -598 -13 -625 -6 -2 1 1 7 7 14 5 6
20 30 32 52 12 22 42 74 66 116 l44 77 -50 87 c-27 47 -50 90 -50 95 0 5 -3
10 -7 12 -5 2 -19 23 -32 48 -14 25 -35 62 -48 83 l-23 37 -209 0 -208 0 -91
-157 -90 -158 -347 0 c-190 0 -350 2 -354 5 -4 3 -46 73 -95 157 -48 83 -94
153 -103 155 -9 2 -104 1 -211 -2 l-196 -5 -53 -90 c-29 -49 -56 -97 -60 -105
-4 -8 -26 -48 -50 -88 l-44 -74 76 -129 c41 -72 75 -131 75 -132 0 -1 -141 -2
-312 -2 -266 0 -314 2 -322 15 -5 8 -20 48 -32 88 -19 60 -22 92 -20 170 4
105 8 131 33 195 40 104 98 167 712 779 563 562 622 618 686 650 64 32 119 51
185 62 25 4 162 -1 190 -7z m175 -922 l93 -160 -22 -40 c-12 -22 -55 -96 -95
-165 l-73 -125 -188 0 -189 0 -34 60 c-67 119 -89 157 -122 212 l-33 55 27 47
c16 25 58 99 96 164 l67 117 190 -2 190 -3 93 -160z m127 -920 c32 -55 58
-102 58 -105 0 -8 -115 -4 -128 4 -6 4 -24 29 -39 56 l-28 50 -275 0 -276 0
-29 -55 c-17 -30 -32 -55 -35 -56 -23 -5 -122 -3 -125 2 -4 5 44 93 102 187
l14 22 351 -2 352 -3 58 -100z m-417 -938 c149 0 399 2 558 4 158 2 287 1 287
-2 0 -4 -110 -116 -244 -250 -254 -254 -316 -303 -422 -335 -75 -22 -91 -24
-174 -25 -120 -2 -256 44 -345 116 -87 70 -501 494 -487 497 9 2 137 1 286 -1
149 -2 393 -4 541 -4z"/>
</g>
</svg>
