<svg width="135" height="98" viewBox="0 0 135 98" fill="none" xmlns="http://www.w3.org/2000/svg">
<path d="M65.5246 0.096338C61.6048 0.467132 58.2411 1.95031 55.0364 4.70478C53.977 5.60528 46.1903 13.3125 37.7415 21.8143C26.6972 32.9381 22.1417 37.7054 21.4796 38.7913C18.6721 43.6117 17.9041 48.8822 19.3078 53.9409L19.7845 55.689H9.9055C4.44953 55.689 0 55.7684 0 55.8479C0 55.9273 1.6156 58.3375 3.57551 61.1979C5.53542 64.0848 7.17751 66.495 7.23048 66.6009C7.25697 66.7068 5.64137 69.17 3.65497 72.0833C1.64209 74.9967 0 77.4334 0 77.5128C0 77.6188 8.89906 77.6717 19.7845 77.6717H39.569L47.9384 85.9616C56.9698 94.9137 57.8439 95.6023 61.8431 96.9265C63.6706 97.5357 64.4122 97.6416 67.405 97.6416C70.3184 97.6681 71.166 97.5622 72.8345 97.059C77.2576 95.6552 77.7608 95.2845 87.0042 86.0941L95.5059 77.6717H115.317C131.049 77.6717 135.101 77.5923 134.995 77.3274C134.916 77.1685 133.353 74.8113 131.499 72.1098C129.645 69.4083 128.083 67.0776 128.003 66.8922C127.924 66.7068 129.46 64.2702 131.367 61.4892C133.3 58.6818 134.916 56.2451 134.995 56.0333C135.101 55.7419 133.38 55.689 125.196 55.689H115.29L115.82 53.888C116.244 52.5372 116.35 51.3454 116.35 48.8028C116.376 45.757 116.297 45.2802 115.529 43.029C113.993 38.553 113.675 38.1822 96.4329 20.9138C87.7457 12.2001 79.9326 4.51938 79.0586 3.85725C75.1917 0.917382 70.5833 -0.380397 65.5246 0.096338ZM72.1194 4.54587C75.589 5.76419 75.8803 6.02904 88.9376 18.9803C95.7973 25.84 101.439 31.5344 101.439 31.6403C101.439 31.7463 96.9361 31.8522 91.4537 31.8522H81.4423L78.1316 26.0784L74.8209 20.3311H67.5375H60.2805L56.6785 26.5816L53.0765 32.8321L56.652 39.0827L60.254 45.3597H67.5375H74.8209L78.1051 39.6654L81.3628 33.971H92.6985H104.008L106.762 36.8049C108.298 38.3941 109.914 40.248 110.364 40.9896C112.748 44.777 113.225 50.4714 111.503 54.5236L111 55.689H102.657H94.3141L96.3005 52.2724L98.2869 48.8822L95.5324 44.1414L92.8044 39.4005L87.216 39.321L81.6541 39.2681L79.2175 43.5057L76.7544 47.7434H67.5375H58.3206L55.884 43.5057L53.4473 39.2681L47.8854 39.321L42.297 39.4005L39.569 44.1149L36.841 48.8558L38.8009 52.2724L40.7609 55.689L32.365 55.636L23.9692 55.5565L23.36 53.835C22.0093 50.0741 22.3536 45.5716 24.287 41.8107C25.161 40.0891 26.6707 38.5265 41.9527 23.218C57.9498 7.19439 58.7444 6.45281 60.6513 5.52582C61.7372 4.99612 63.4058 4.38695 64.3592 4.17507C66.584 3.67185 70.0801 3.83076 72.1194 4.54587ZM74.609 27.747C75.6949 29.6274 76.8073 31.5609 77.0722 31.9846L77.5754 32.8057L75.1388 37.0168L72.6756 41.2545H67.5375H62.3993L59.9627 37.0433L57.5525 32.8321L59.7773 28.9653C61.0221 26.8465 62.1345 24.8866 62.2669 24.6217C62.5053 24.1979 62.982 24.1715 67.5904 24.2244L72.6227 24.3039L74.609 27.747ZM77.6813 51.5837C78.1051 52.2988 78.8202 53.5436 79.244 54.2852L80.0385 55.689H78.211H76.41L75.6155 54.2323L74.8474 52.7756H67.5375H60.254L59.4595 54.2323L58.6914 55.689H56.8639C54.7981 55.689 54.7716 56.0862 56.9963 52.2988L58.2941 50.127L67.5904 50.18L76.9133 50.2595L77.6813 51.5837ZM53.3943 57.384C53.8446 57.7283 53.8976 58.2051 54.03 62.3103L54.1624 66.8657L56.8639 64.3232C58.3736 62.9194 59.7773 61.7806 59.9892 61.7806C60.5454 61.7806 61.4459 62.734 61.4459 63.3432C61.4459 63.6345 60.5983 64.641 59.4065 65.7269L57.3671 67.5808L59.38 69.7791C61.9226 72.5866 62.1345 73.0103 61.5783 73.8579C60.7837 75.0762 59.9627 74.7319 57.3406 72.1098C55.1159 69.8851 54.957 69.7791 54.5067 70.1764C54.1624 70.4942 54.03 70.9974 54.03 72.1098C54.03 73.8314 53.6062 74.5465 52.6263 74.5465C51.1166 74.5465 51.1166 74.5994 51.1166 65.9388C51.1166 58.8937 51.1696 57.9137 51.5668 57.49C52.0701 56.9073 52.6792 56.8808 53.3943 57.384ZM20.6056 58.3905C20.8439 58.6288 20.9234 60.4033 20.9234 64.7999C20.9234 70.6531 20.8969 70.971 20.3142 71.9774C19.9964 72.5336 19.2018 73.3811 18.5927 73.8049C17.6127 74.4935 17.1625 74.6259 15.5469 74.7054C13.9577 74.7584 13.481 74.6789 12.607 74.1757C12.0243 73.8314 11.3357 73.2487 11.0444 72.8514C9.77307 71.1299 11.8124 69.6202 13.428 71.1034C13.7194 71.3947 14.461 71.6861 15.0436 71.7655C15.9441 71.8715 16.209 71.792 16.9771 71.1034L17.8776 70.3088L18.01 64.4291C18.1424 58.1256 18.1689 58.0726 19.6256 58.0726C19.9964 58.0726 20.4202 58.2051 20.6056 58.3905ZM80.1974 58.3905C80.4358 58.6288 80.5153 60.4298 80.5153 64.8529V70.9974L79.6677 72.2687C78.5024 73.9638 76.9662 74.7584 74.9004 74.7584C73.1259 74.7584 71.6162 74.1227 70.7422 73.0103C69.259 71.1034 71.2189 69.5672 73.0994 71.1564C74.2383 72.1098 75.4831 72.0833 76.5954 71.0769L77.4695 70.3088L77.5489 64.5086C77.6284 59.5293 77.6813 58.6818 78.0521 58.3905C78.6083 57.9932 79.7737 57.9667 80.1974 58.3905ZM31.9413 62.3897C32.7093 62.787 32.7888 62.787 33.1861 62.2838C33.6893 61.7276 34.9606 61.6217 35.4373 62.0984C35.6757 62.3368 35.7551 64.0583 35.7551 68.19V73.9638L35.1195 74.3611C34.5898 74.7319 34.3514 74.7319 33.8482 74.467C33.5039 74.3081 33.1331 73.9903 33.0272 73.8049C32.8682 73.5136 32.6564 73.5665 32.0207 74.0168C30.8289 74.9173 28.0479 74.9967 26.6177 74.1757C22.8038 71.9509 22.2741 66.0712 25.6378 63.0519C26.2469 62.4957 27.015 61.9925 27.3328 61.9395C29.1338 61.5422 30.5905 61.6746 31.9413 62.3897ZM47.647 62.3103C48.574 62.787 49.0507 63.7405 48.7594 64.5086C48.3886 65.462 47.647 65.5945 46.3757 64.9323C42.6413 62.9989 39.2247 67.9516 42.2175 70.9445C43.3299 72.0569 44.6542 72.3217 46.1639 71.739C48.0443 71.0239 48.9978 71.2888 48.9978 72.5071C48.9978 73.9108 46.7465 74.8643 43.8331 74.7054C42.1646 74.6259 41.7143 74.4935 40.7344 73.7784C37.1059 71.1564 37.3178 64.7204 41.1316 62.5751C42.8797 61.5687 46.0579 61.4363 47.647 62.3103ZM92.778 62.5486C97.254 65.3031 96.7772 72.4012 91.9834 74.4141C90.7386 74.9173 88.0106 74.8378 86.7393 74.2551C84.3027 73.1428 83.0579 71.1034 83.0579 68.2695C83.0579 66.6539 83.1638 66.2036 83.8524 64.9588C84.8059 63.2637 86.5539 62.0454 88.2755 61.7806C89.7851 61.5687 91.745 61.913 92.778 62.5486ZM120.19 62.4692C120.773 62.8665 120.852 62.84 121.223 62.3368C121.673 61.6746 122.786 61.6217 123.474 62.2308C123.898 62.6281 123.951 63.1578 123.951 68.1635V73.6725L123.289 74.1757C122.521 74.7848 121.726 74.6789 121.197 73.9108C120.852 73.4076 120.799 73.4341 119.846 74.0697C119.025 74.6259 118.522 74.7584 117.197 74.7584C115.767 74.7584 115.37 74.6524 114.258 73.8843C112.404 72.6395 111.503 70.8121 111.503 68.2959C111.503 63.9259 114.496 61.1184 118.363 61.8335C119.025 61.9395 119.819 62.2308 120.19 62.4692ZM100.326 62.2043C100.644 62.4162 100.909 62.787 100.909 62.9989C100.909 63.5021 101.28 63.4756 101.73 62.9459C102.339 62.2043 103.504 61.7806 105.014 61.7806C106.974 61.7806 107.875 62.2838 108.563 63.7405C109.066 64.8264 109.119 65.4091 109.119 69.4348C109.119 74.2816 109.04 74.5465 107.61 74.5465C106.391 74.5465 106.206 73.9638 106.206 69.938C106.206 64.9853 105.703 64.0583 103.187 64.535C101.518 64.8529 101.333 65.3296 101.174 69.7791C101.041 73.54 101.015 73.7784 100.406 74.2551C99.6112 74.9173 99.4258 74.8908 98.6577 74.0962C97.9956 73.4606 97.9956 73.4076 97.9956 68.4284C97.9956 65.6739 98.1015 63.1048 98.2339 62.734C98.4458 62.1778 98.7107 61.9925 99.5847 61.8071C99.6641 61.8071 100.008 61.966 100.326 62.2043ZM83.0049 84.5579C75.642 91.8679 74.8209 92.5035 71.3249 93.404C69.259 93.9337 65.8159 93.9337 63.7236 93.404C60.36 92.53 59.4065 91.8149 52.0701 84.5579L45.2369 77.7512H67.5375H89.8381L83.0049 84.5579Z" fill="black"/>
<path d="M28.445 64.6675C27.5975 65.0383 26.5646 66.4155 26.3792 67.4484C26.1143 68.7727 26.5911 70.2824 27.5445 71.1829C28.2331 71.845 28.6039 71.9774 29.6633 71.9774C30.7228 71.9774 31.0935 71.845 31.7557 71.2093C33.2389 69.7791 33.2653 66.8658 31.8087 65.4091C31.0141 64.588 29.425 64.2437 28.445 64.6675Z" fill="black"/>
<path d="M87.7199 64.9587C85.3627 66.4419 85.5746 70.5206 88.0907 71.7125C90.7657 72.9838 93.6526 70.1234 92.7521 67.104C92.0635 64.8528 89.5739 63.7934 87.7199 64.9587Z" fill="black"/>
<path d="M116.27 64.7734C113.807 66.0182 113.78 70.4412 116.243 71.7125C117.25 72.2157 117.938 72.2157 119.077 71.686C120.057 71.2093 121.037 69.5142 121.037 68.2429C121.011 65.5944 118.415 63.6875 116.27 64.7734Z" fill="black"/>
</svg>
